<svg xmlns="http://www.w3.org/2000/svg" xmlns:xlink="http://www.w3.org/1999/xlink" version="1.1" data-diagram-type="DESCRIPTION" style="width:990px;height:1006px;background:#FFFFFF;" width="990px" height="1006px" viewBox="0 0 990 1006" zoomAndPan="magnify" preserveAspectRatio="none" contentStyleType="text/css"><?plantuml 1.2026.8beta1?><defs/><g font-family="sans-serif" lengthAdjust="spacing"><g class="title" data-source-line="5"><text x="250.715" y="22.995" fill="#000" font-size="14" textLength="481.578" font-weight="700">Диаграмма компонентов — Temperature Monitoring Service</text></g><!--cluster tempSvc--><g class="cluster" data-qualified-name="tempSvc" id="ent0005" data-source-line="1690"><rect x="157.04" y="44.297" width="588" height="614.64" fill="none" style="stroke:#444;stroke-width:1;stroke-dasharray:7,7;"/><text x="304.282" y="61.148" fill="#444" font-size="16" textLength="293.516" font-weight="700">Temperature Monitoring Service</text><text x="413.332" y="76.061" fill="#444" font-size="12" textLength="75.416" font-weight="700">[container]</text></g><!--entity api--><g class="entity" data-qualified-name="tempSvc.api" id="ent0006" data-source-line="83"><rect x="172.55" y="332.367" width="158.968" height="117.781" fill="#85BBF0" style="stroke:#78A8D8;stroke-width:0.5;"/><text x="237.003" y="357.218" fill="#000" font-size="16" textLength="30.063" font-weight="700">API</text><text x="201.257" y="372.131" fill="#000" font-size="12" textLength="35.549" font-style="italic">[REST</text><text x="236.805" y="372.131" fill="#000" font-size="12" font-style="italic"> </text><text x="240.62" y="372.131" fill="#000" font-size="12" textLength="62.191" font-style="italic">controller]</text><text x="249.809" y="387.956" fill="#000" font-size="14"> </text><text x="182.55" y="404.253" fill="#000" font-size="14" textLength="54.202">Отдаёт</text><text x="236.752" y="404.253" fill="#000" font-size="14"> </text><text x="241.202" y="404.253" fill="#000" font-size="14" textLength="66.767">текущую</text><text x="307.969" y="404.253" fill="#000" font-size="14"> </text><text x="312.419" y="404.253" fill="#000" font-size="14">и</text><text x="199.729" y="420.549" fill="#000" font-size="14" textLength="104.61">историческую</text><text x="203.946" y="436.846" fill="#000" font-size="14" textLength="96.175">температуру</text></g><!--entity poller--><g class="entity" data-qualified-name="tempSvc.poller" id="ent0007" data-source-line="83"><rect x="478.78" y="95.297" width="206.512" height="134.078" fill="#85BBF0" style="stroke:#78A8D8;stroke-width:0.5;"/><text x="521.95" y="120.148" fill="#000" font-size="16" textLength="62.172" font-weight="700">Sensor</text><text x="584.122" y="120.148" fill="#000" font-size="16" font-weight="700"> </text><text x="589.692" y="120.148" fill="#000" font-size="16" textLength="52.43" font-weight="700">Poller</text><text x="519.15" y="135.061" fill="#000" font-size="12" textLength="75.92" font-style="italic">[background</text><text x="595.07" y="135.061" fill="#000" font-size="12" font-style="italic"> </text><text x="598.884" y="135.061" fill="#000" font-size="12" textLength="46.037" font-style="italic">worker]</text><text x="579.811" y="150.886" fill="#000" font-size="14"> </text><text x="528.733" y="167.183" fill="#000" font-size="14" textLength="106.606">Периодически</text><text x="488.78" y="183.479" fill="#000" font-size="14" textLength="90.692">опрашивает</text><text x="579.472" y="183.479" fill="#000" font-size="14"> </text><text x="583.923" y="183.479" fill="#000" font-size="14" textLength="91.369">Temperature</text><text x="494.416" y="199.776" fill="#000" font-size="14" textLength="55.282">Sensors</text><text x="549.698" y="199.776" fill="#000" font-size="14"> </text><text x="554.149" y="199.776" fill="#000" font-size="14" textLength="22.148">API</text><text x="576.297" y="199.776" fill="#000" font-size="14"> </text><text x="580.747" y="199.776" fill="#000" font-size="14" textLength="17.719">по</text><text x="598.466" y="199.776" fill="#000" font-size="14"> </text><text x="602.916" y="199.776" fill="#000" font-size="14" textLength="66.739">каждому</text><text x="551.773" y="216.073" fill="#000" font-size="14" textLength="60.525">датчику</text></g><!--entity readingProcessor--><g class="entity" data-qualified-name="tempSvc.readingProcessor" id="ent0008" data-source-line="83"><rect x="440.29" y="332.367" width="195.492" height="117.781" fill="#85BBF0" style="stroke:#78A8D8;stroke-width:0.5;"/><text x="453.938" y="357.218" fill="#000" font-size="16" textLength="73.75" font-weight="700">Reading</text><text x="527.688" y="357.218" fill="#000" font-size="16" font-weight="700"> </text><text x="533.259" y="357.218" fill="#000" font-size="16" textLength="88.875" font-weight="700">Processor</text><text x="487.484" y="372.131" fill="#000" font-size="12" textLength="49.623" font-style="italic">[domain</text><text x="537.107" y="372.131" fill="#000" font-size="12" font-style="italic"> </text><text x="540.922" y="372.131" fill="#000" font-size="12" textLength="47.666" font-style="italic">service]</text><text x="535.811" y="387.956" fill="#000" font-size="14"> </text><text x="450.29" y="404.253" fill="#000" font-size="14" textLength="88.949">Валидирует</text><text x="539.239" y="404.253" fill="#000" font-size="14"> </text><text x="543.689" y="404.253" fill="#000" font-size="14" textLength="82.093">показание,</text><text x="461.07" y="420.549" fill="#000" font-size="14" textLength="80.808">сохраняет,</text><text x="541.878" y="420.549" fill="#000" font-size="14"> </text><text x="546.328" y="420.549" fill="#000" font-size="14" textLength="55.658">решает</text><text x="601.986" y="420.549" fill="#000" font-size="14"> </text><text x="606.436" y="420.549" fill="#000" font-size="14">о</text><text x="460.558" y="436.846" fill="#000" font-size="14" textLength="88.881">публикации</text><text x="549.438" y="436.846" fill="#000" font-size="14"> </text><text x="553.889" y="436.846" fill="#000" font-size="14" textLength="61.626">события</text></g><!--entity eventPublisher--><g class="entity" data-qualified-name="tempSvc.eventPublisher" id="ent0009" data-source-line="83"><rect x="460.21" y="525.147" width="183.659" height="117.781" fill="#85BBF0" style="stroke:#78A8D8;stroke-width:0.5;"/><text x="481.032" y="549.998" fill="#000" font-size="16" textLength="51.25" font-weight="700">Event</text><text x="532.282" y="549.998" fill="#000" font-size="16" font-weight="700"> </text><text x="537.852" y="549.998" fill="#000" font-size="16" textLength="85.195" font-weight="700">Publisher</text><text x="514.806" y="564.911" fill="#000" font-size="12" textLength="74.467" font-style="italic">[messaging]</text><text x="549.814" y="580.736" fill="#000" font-size="14"> </text><text x="512.538" y="597.033" fill="#000" font-size="14" textLength="79.003">Публикует</text><text x="470.21" y="613.329" fill="#000" font-size="14" textLength="150.958">TemperatureUpdated</text><text x="621.168" y="613.329" fill="#000" font-size="14"> </text><text x="625.618" y="613.329" fill="#000" font-size="14">в</text><text x="526.019" y="629.626" fill="#000" font-size="14" textLength="52.042">брокер</text></g><!--entity repository--><g class="entity" data-qualified-name="tempSvc.repository" id="ent0010" data-source-line="83"><rect x="200.58" y="533.297" width="196.906" height="101.484" fill="#85BBF0" style="stroke:#78A8D8;stroke-width:0.5;"/><text x="210.58" y="558.148" fill="#000" font-size="16" textLength="73.75" font-weight="700">Reading</text><text x="284.33" y="558.148" fill="#000" font-size="16" font-weight="700"> </text><text x="289.9" y="558.148" fill="#000" font-size="16" textLength="97.586" font-weight="700">Repository</text><text x="228.469" y="573.061" fill="#000" font-size="12" textLength="19.166" font-style="italic">[EF</text><text x="247.635" y="573.061" fill="#000" font-size="12" font-style="italic"> </text><text x="251.449" y="573.061" fill="#000" font-size="12" textLength="28.037" font-style="italic">Core</text><text x="279.486" y="573.061" fill="#000" font-size="12" font-style="italic"> </text><text x="283.301" y="573.061" fill="#000" font-size="12" font-style="italic">/</text><text x="287.344" y="573.061" fill="#000" font-size="12" font-style="italic"> </text><text x="291.158" y="573.061" fill="#000" font-size="12" textLength="28.652" font-style="italic">Data</text><text x="319.81" y="573.061" fill="#000" font-size="12" font-style="italic"> </text><text x="323.625" y="573.061" fill="#000" font-size="12" textLength="45.973" font-style="italic">Access]</text><text x="296.808" y="588.886" fill="#000" font-size="14"> </text><text x="233.658" y="605.183" fill="#000" font-size="14" textLength="52.794">Доступ</text><text x="286.452" y="605.183" fill="#000" font-size="14"> </text><text x="290.902" y="605.183" fill="#000" font-size="14">к</text><text x="299.358" y="605.183" fill="#000" font-size="14"> </text><text x="303.808" y="605.183" fill="#000" font-size="14" textLength="60.601">истории</text><text x="259.969" y="621.479" fill="#000" font-size="14" textLength="78.128">показаний</text></g><!--entity gateway--><g class="entity" data-qualified-name="gateway" id="ent0001" data-source-line="76"><rect x="7" y="136.037" width="134.07" height="52.594" fill="#438DD5" style="stroke:#3C7FC0;stroke-width:0.5;"/><text x="17" y="160.888" fill="#FFF" font-size="16" textLength="30.063" font-weight="700">API</text><text x="47.063" y="160.888" fill="#FFF" font-size="16" font-weight="700"> </text><text x="52.633" y="160.888" fill="#FFF" font-size="16" textLength="78.438" font-weight="700">Gateway</text><text x="53.92" y="175.801" fill="#FFF" font-size="12" textLength="40.23" font-style="italic">[REST]</text></g><!--entity broker--><g class="entity" data-qualified-name="broker" id="ent0002" data-source-line="84"><path d="M474.56,743.437 L629.513,743.437 C634.513,743.437 634.513,764.734 634.513,764.734 C634.513,764.734 634.513,786.031 629.513,786.031 L474.56,786.031 C469.56,786.031 469.56,764.734 469.56,764.734 C469.56,764.734 469.56,743.437 474.56,743.437" style="stroke:#3C7FC0;stroke-width:0.5;" fill="#438DD5"/><path d="M629.513,743.437 C624.513,743.437 624.513,764.734 624.513,764.734 C624.513,786.031 629.513,786.031 629.513,786.031" style="stroke:#3C7FC0;stroke-width:0.5;" fill="none"/><text x="474.56" y="763.288" fill="#FFF" font-size="16" textLength="78.922" font-weight="700">Message</text><text x="553.482" y="763.288" fill="#FFF" font-size="16" font-weight="700"> </text><text x="559.052" y="763.288" fill="#FFF" font-size="16" textLength="60.461" font-weight="700">Broker</text><text x="512.973" y="778.201" fill="#FFF" font-size="12" textLength="68.127" font-style="italic">[RabbitMQ]</text></g><!--entity tempDb--><g class="entity" data-qualified-name="tempDb" id="ent0003" data-source-line="80"><path d="M214.91,743.937 C214.91,733.937 299.039,733.937 299.039,733.937 C299.039,733.937 383.168,733.937 383.168,743.937 L383.168,785.531 C383.168,795.531 299.039,795.531 299.039,795.531 C299.039,795.531 214.91,795.531 214.91,785.531 L214.91,743.937" style="stroke:#3C7FC0;stroke-width:0.5;" fill="#438DD5"/><path d="M214.91,743.937 C214.91,753.937 299.039,753.937 299.039,753.937 C299.039,753.937 383.168,753.937 383.168,743.937" style="stroke:#3C7FC0;stroke-width:0.5;" fill="none"/><text x="224.91" y="772.788" fill="#FFF" font-size="16" textLength="117.211" font-weight="700">Temperature</text><text x="342.121" y="772.788" fill="#FFF" font-size="16" font-weight="700"> </text><text x="347.691" y="772.788" fill="#FFF" font-size="16" textLength="25.477" font-weight="700">DB</text><text x="259.749" y="787.701" fill="#FFF" font-size="12" textLength="78.58" font-style="italic">[PostgreSQL]</text></g><!--entity tempApi--><g class="entity" data-qualified-name="tempApi" id="ent0004" data-source-line="419"><rect x="760.8" y="338.187" width="214.477" height="106.141" fill="#999" style="stroke:#8A8A8A;stroke-width:0.5;"/><text x="770.8" y="363.038" fill="#FFF" font-size="16" textLength="117.211" font-weight="700">Temperature</text><text x="888.011" y="363.038" fill="#FFF" font-size="16" font-weight="700"> </text><text x="893.581" y="363.038" fill="#FFF" font-size="16" textLength="71.695" font-weight="700">Sensors</text><text x="853.007" y="381.663" fill="#FFF" font-size="16" textLength="30.063" font-weight="700">API</text><text x="865.813" y="398.432" fill="#FFF" font-size="14"> </text><text x="797.799" y="414.729" fill="#FFF" font-size="14" textLength="67.532">Внешний</text><text x="865.331" y="414.729" fill="#FFF" font-size="14"> </text><text x="869.781" y="414.729" fill="#FFF" font-size="14" textLength="68.496">источник</text><text x="828.974" y="431.026" fill="#FFF" font-size="14" textLength="78.128">показаний</text></g><!--link gateway to api--><g class="link" data-entity-1="ent0001" data-entity-2="ent0006" id="lnk11" data-source-line="1803" data-link-type="dependency"><path d="M94.11,188.927 C121.2,223.467 165.323,279.712 201.593,325.952" style="stroke:#666;stroke-width:1;" fill="none" id="gateway-to-api"/><polygon points="206.53,332.247,203.953,324.101,199.232,327.804,206.53,332.247" fill="#666" style="stroke:#666;stroke-width:1;stroke-linejoin:miter;stroke-miterlimit:10;"/><text x="180.04" y="271.506" fill="#666" font-size="12" textLength="160.898" font-weight="700">Текущая/историческая</text><text x="215.747" y="285.474" fill="#666" font-size="12" textLength="89.484" font-weight="700">температура</text><text x="219.749" y="299.443" fill="#666" font-size="12" textLength="35.549" font-style="italic">[REST</text><text x="255.298" y="299.443" fill="#666" font-size="12" font-style="italic"> </text><text x="259.112" y="299.443" fill="#666" font-size="12" font-style="italic">/</text><text x="263.155" y="299.443" fill="#666" font-size="12" font-style="italic"> </text><text x="266.97" y="299.443" fill="#666" font-size="12" textLength="34.26" font-style="italic">JSON]</text></g><!--link api to repository--><g class="link" data-entity-1="ent0006" data-entity-2="ent0010" id="lnk12" data-source-line="1803" data-link-type="dependency"><path d="M207.18,450.587 C201.05,465.097 198.74,480.647 205.04,495.147 C211.08,509.087 215.032,516.034 225.682,527.214" style="stroke:#666;stroke-width:1;" fill="none" id="api-to-repository"/><polygon points="231.2,533.007,227.854,525.145,223.51,529.284,231.2,533.007" fill="#666" style="stroke:#666;stroke-width:1;stroke-linejoin:miter;stroke-miterlimit:10;"/><text x="206.04" y="492.286" fill="#666" font-size="12" textLength="48.252" font-weight="700">Читает</text><text x="254.292" y="492.286" fill="#666" font-size="12" font-weight="700"> </text><text x="258.47" y="492.286" fill="#666" font-size="12" textLength="59.385" font-weight="700">историю</text></g><!--link poller to tempApi--><g class="link" data-entity-1="ent0007" data-entity-2="ent0004" id="lnk13" data-source-line="1803" data-link-type="dependency"><path d="M685.37,209.887 C711.36,223.927 738.3,240.647 761.04,259.367 C788.34,281.857 808.872,305.753 828.012,331.543" style="stroke:#666;stroke-width:1;" fill="none" id="poller-to-tempApi"/><polygon points="832.78,337.967,830.421,329.755,825.603,333.331,832.78,337.967" fill="#666" style="stroke:#666;stroke-width:1;stroke-linejoin:miter;stroke-miterlimit:10;"/><text x="804.04" y="278.506" fill="#666" font-size="12" textLength="93.539" font-weight="700">Запрашивает</text><text x="897.579" y="278.506" fill="#666" font-size="12" font-weight="700"> </text><text x="901.757" y="278.506" fill="#666" font-size="12" textLength="72.252" font-weight="700">показания</text><text x="825.201" y="292.474" fill="#666" font-size="12" textLength="43.219" font-style="italic">[HTTPS</text><text x="868.42" y="292.474" fill="#666" font-size="12" font-style="italic"> </text><text x="872.234" y="292.474" fill="#666" font-size="12" font-style="italic">/</text><text x="876.277" y="292.474" fill="#666" font-size="12" font-style="italic"> </text><text x="880.092" y="292.474" fill="#666" font-size="12" textLength="34.682" font-style="italic">REST,</text><text x="914.773" y="292.474" fill="#666" font-size="12" font-style="italic"> </text><text x="918.588" y="292.474" fill="#666" font-size="12" textLength="34.26" font-style="italic">JSON]</text></g><!--link poller to readingProcessor--><g class="link" data-entity-1="ent0007" data-entity-2="ent0008" id="lnk14" data-source-line="1803" data-link-type="dependency"><path d="M569.19,229.577 C562.9,262.027 556.911,292.883 550.851,324.183" style="stroke:#666;stroke-width:1;" fill="none" id="poller-to-readingProcessor"/><polygon points="549.33,332.037,553.796,324.753,547.905,323.612,549.33,332.037" fill="#666" style="stroke:#666;stroke-width:1;stroke-linejoin:miter;stroke-miterlimit:10;"/><text x="563.04" y="285.506" fill="#666" font-size="12" textLength="67.793" font-weight="700">Передаёт</text><text x="630.833" y="285.506" fill="#666" font-size="12" font-weight="700"> </text><text x="635.011" y="285.506" fill="#666" font-size="12" textLength="40.512" font-weight="700">новое</text><text x="675.522" y="285.506" fill="#666" font-size="12" font-weight="700"> </text><text x="679.7" y="285.506" fill="#666" font-size="12" textLength="72.686" font-weight="700">показание</text></g><!--link readingProcessor to repository--><g class="link" data-entity-1="ent0008" data-entity-2="ent0010" id="lnk15" data-source-line="1803" data-link-type="dependency"><path d="M439.92,441.717 C420.89,453.187 401.7,466.177 385.04,480.147 C366.75,495.487 354.312,508.786 339.992,526.716" style="stroke:#666;stroke-width:1;" fill="none" id="readingProcessor-to-repository"/><polygon points="335,532.967,342.337,528.588,337.648,524.844,335,532.967" fill="#666" style="stroke:#666;stroke-width:1;stroke-linejoin:miter;stroke-miterlimit:10;"/><text x="386.04" y="492.286" fill="#666" font-size="12" textLength="72.568" font-weight="700">Сохраняет</text><text x="458.608" y="492.286" fill="#666" font-size="12" font-weight="700"> </text><text x="462.786" y="492.286" fill="#666" font-size="12" textLength="72.686" font-weight="700">показание</text></g><!--link readingProcessor to eventPublisher--><g class="link" data-entity-1="ent0008" data-entity-2="ent0009" id="lnk16" data-source-line="1803" data-link-type="dependency"><path d="M542.31,450.537 C544.04,474.097 545.444,493.258 547.174,516.818" style="stroke:#666;stroke-width:1;" fill="none" id="readingProcessor-to-eventPublisher"/><polygon points="547.76,524.797,550.166,516.599,544.182,517.038,547.76,524.797" fill="#666" style="stroke:#666;stroke-width:1;stroke-linejoin:miter;stroke-miterlimit:10;"/><text x="546.04" y="492.286" fill="#666" font-size="12" textLength="83.959" font-weight="700">Инициирует</text><text x="629.999" y="492.286" fill="#666" font-size="12" font-weight="700"> </text><text x="634.177" y="492.286" fill="#666" font-size="12" textLength="86.9" font-weight="700">публикацию</text></g><!--link eventPublisher to broker--><g class="link" data-entity-1="ent0009" data-entity-2="ent0002" id="lnk17" data-source-line="1803" data-link-type="dependency"><path d="M552.04,643.057 C552.04,677.497 552.04,711.057 552.04,735.327" style="stroke:#666;stroke-width:1;" fill="none" id="eventPublisher-to-broker"/><polygon points="552.04,743.327,555.04,735.327,549.04,735.327,552.04,743.327" fill="#666" style="stroke:#666;stroke-width:1;stroke-linejoin:miter;stroke-miterlimit:10;"/><text x="553.04" y="687.076" fill="#666" font-size="12" textLength="145.395" font-weight="700">TemperatureUpdated</text><text x="603.434" y="701.044" fill="#666" font-size="12" textLength="44.607" font-style="italic">[AMQP]</text></g><!--link repository to tempDb--><g class="link" data-entity-1="ent0010" data-entity-2="ent0003" id="lnk18" data-source-line="1803" data-link-type="dependency"><path d="M299.04,634.817 C299.04,666.517 299.04,698.557 299.04,725.527" style="stroke:#666;stroke-width:1;" fill="none" id="repository-to-tempDb"/><polygon points="299.04,733.527,302.04,725.527,296.04,725.527,299.04,733.527" fill="#666" style="stroke:#666;stroke-width:1;stroke-linejoin:miter;stroke-miterlimit:10;"/><text x="320.659" y="687.076" fill="#666" font-size="12" textLength="26.49" font-weight="700">SQL</text><text x="300.04" y="701.044" fill="#666" font-size="12" textLength="28.43" font-style="italic">[SQL</text><text x="328.47" y="701.044" fill="#666" font-size="12" font-style="italic"> </text><text x="332.284" y="701.044" fill="#666" font-size="12" font-style="italic">/</text><text x="336.327" y="701.044" fill="#666" font-size="12" font-style="italic"> </text><text x="340.142" y="701.044" fill="#666" font-size="12" textLength="27.627" font-style="italic">TCP]</text></g><g class="legend" data-source-line="66"><text x="815.358" y="846.526" fill="#000" font-size="14" textLength="57.921" font-weight="700">Legend</text><text x="873.279" y="846.526" fill="#FFF" font-size="14"> </text><rect x="815.358" y="849.828" width="150.65" height="16.297" fill="#08427B" style="stroke:none;"/><text x="819.809" y="862.823" fill="#FFF" font-size="14" textLength="47.988">person</text><rect x="815.358" y="866.124" width="150.65" height="16.297" fill="#1168BD" style="stroke:none;"/><text x="819.809" y="879.119" fill="#FFF" font-size="14" textLength="50.613">system</text><rect x="815.358" y="882.421" width="150.65" height="16.297" fill="#438DD5" style="stroke:none;"/><text x="819.809" y="895.416" fill="#FFF" font-size="14" textLength="66.336">container</text><rect x="815.358" y="898.718" width="150.65" height="16.297" fill="#85BBF0" style="stroke:none;"/><text x="819.809" y="911.713" fill="#FFF" font-size="14" textLength="79.201">component</text><rect x="815.358" y="915.015" width="150.65" height="16.297" fill="#686868" style="stroke:none;"/><text x="819.809" y="928.01" fill="#FFF" font-size="14" textLength="110.537">external person</text><rect x="815.358" y="931.312" width="150.65" height="16.297" fill="#999" style="stroke:none;"/><text x="819.809" y="944.307" fill="#FFF" font-size="14" textLength="113.162">external system</text><rect x="815.358" y="947.609" width="150.65" height="16.297" fill="#B3B3B3" style="stroke:none;"/><text x="819.809" y="960.604" fill="#FFF" font-size="14" textLength="128.885">external container</text><rect x="815.358" y="963.906" width="150.65" height="16.297" fill="#CCC" style="stroke:none;"/><text x="819.809" y="976.901" fill="#FFF" font-size="14" textLength="141.75">external component</text><line x1="815.358" y1="833.531" x2="966.009" y2="833.531" style="stroke:#FFF;stroke-width:1;"/><line x1="815.358" y1="849.828" x2="966.009" y2="849.828" style="stroke:#FFF;stroke-width:1;"/><line x1="815.358" y1="866.124" x2="966.009" y2="866.124" style="stroke:#FFF;stroke-width:1;"/><line x1="815.358" y1="882.421" x2="966.009" y2="882.421" style="stroke:#FFF;stroke-width:1;"/><line x1="815.358" y1="898.718" x2="966.009" y2="898.718" style="stroke:#FFF;stroke-width:1;"/><line x1="815.358" y1="915.015" x2="966.009" y2="915.015" style="stroke:#FFF;stroke-width:1;"/><line x1="815.358" y1="931.312" x2="966.009" y2="931.312" style="stroke:#FFF;stroke-width:1;"/><line x1="815.358" y1="947.609" x2="966.009" y2="947.609" style="stroke:#FFF;stroke-width:1;"/><line x1="815.358" y1="963.906" x2="966.009" y2="963.906" style="stroke:#FFF;stroke-width:1;"/><line x1="815.358" y1="980.203" x2="966.009" y2="980.203" style="stroke:#FFF;stroke-width:1;"/><line x1="815.358" y1="833.531" x2="815.358" y2="980.203" style="stroke:#FFF;stroke-width:1;"/><line x1="966.009" y1="833.531" x2="966.009" y2="980.203" style="stroke:#FFF;stroke-width:1;"/></g><?plantuml-src bLJ1RjD04BtxAvQUKgaq5qxSqYQqe0JI9XNY5Dd9AhLmR6kzRgaGKfeA2a9g1Qe49n1SkAP081JQ_CBkB_0bl5adZad20KMsDxCxCs_UlDbhhj_quXPdkrA6qSryNjZxgsrNxiPE777H37p9VRdQ33hvqBDz6NUywv5iUQwJNxznlKgcdKevtx4ZoGLCZVMW4mO--OGuQrdbmeDxE_N6_TlrpKQvj56wMymjMvPqfSUPEbD3rLTVT1VlN_ZrcRfGLrYCyBvK0tMfUrXzPh-xPwpEEo4Njem5PvN0TsKWNB_DQbpikKrkMUl0Qhi-5xcsBVc-VR32bWhLssmZ-RU4lzkbMdrfUNfoA-OnppaYUCW5jYiyYkmsPsl6O1nint5bPIlhL7Ho4b2A3lQpc8fhv54D8jaMlBPLXa_j0BHq6gL7qhWKGdV6fyRzA10H0qvoLg-fQlqSxw7wmTHG7n81-jWOBfZXvG9aVSTZpY3955bZBOZzbYqEJBRQNdCcspnhIyliiSLOshISRI2EuH1TZ2GW0izB257l0EYhwkjNkiUm7AWBVQHVu3a1t2dYBbR7AENGx9yaHwcl0sgsxi7OrKT0dqqUcZJ8aj32gcbQnsu-R0kgZkq7OjmSzTv46uAJhzDqXE9AZKoQvzZy3Ae60FiFsWsdp93w3M4WFdt4J8KzH1mI_1cKWjijK5WLGHDw2GZlTc9YgOtWjO8EkiAYCTD9U_lg9u8IN9HlSCtrTB32KCULVch6ubAVqZ7OkaOPIJ44UOG0voOSlFKpV8V6KPthbw1xg4zdWFCzlAknuxdHhg6vH0QMMWXYnum0Qaa8dgOOeysmk1EsC5ajXl54ogwf0lsOOoiC8bBTGOQdxTH8QKgtS1vToREYBMrMQ1A79lyPQ3WaiQWH8_bdr4LjNZGDJonhctlJAo0HjFeuKIgeEiqlaYbjB9IfwgUpa6TtQlVk8WkbC97_AazzGhZUf4NP72Sqf-GqaVZqEb1lu30lrzdYq4qStgpNgpN083GhMJ2Jk0l4EHwJGJgs28Sx5SzWWVZ6yURZ_5tfXrc1_a-eEI6gjwP4e-7COCmAtD188MS3f3Vul3o9jK9bgpffGBQCz1gdsphvWDlwEWx_0G00?></g></svg>